<?xml version="1.0" encoding="utf-8"?>
<!-- Generator: Adobe Illustrator 16.0.0, SVG Export Plug-In . SVG Version: 6.00 Build 0)  -->
<!DOCTYPE svg PUBLIC "-//W3C//DTD SVG 1.0//EN" "http://www.w3.org/TR/2001/REC-SVG-20010904/DTD/svg10.dtd">
<svg version="1.0" id="Layer_1" xmlns="http://www.w3.org/2000/svg" xmlns:xlink="http://www.w3.org/1999/xlink" x="0px" y="0px"
	 width="100px" height="100px" viewBox="0 0 100 100" enable-background="new 0 0 100 100" xml:space="preserve">
<path fill="#ae7cd8" d="M10,66.264c12.667,0,25.335,4.993,35,15c2.762,2.76,7.238,2.76,10,0c8.991-9.189,21.363-14.923,35-15
	L80,16.667c0,0-1.501,0-3.333,0c-1.833,0-4.58,1.872-6.106,4.161l-8.336,12.506H37.779L29.44,20.828
	c-1.523-2.289-4.273-4.161-6.107-4.161c-1.832,0-3.333,0-3.333,0L10,66.264z"/>
<path fill="#000000" d="M24.909,26.047L18.027,60.18c11.999,1.754,23.054,7.43,31.687,16.366c0.032,0.033,0.117,0.121,0.286,0.121
	l0.234-0.065c8.73-8.922,19.787-14.59,31.746-16.387l-6.89-34.167L65.791,40H34.212L24.909,26.047z"/>
<path fill="#ae7cd8" d="M53.008,61.667h-6.003c-1.106,0-2.002,0.897-2.002,2.002c0,0.554,0.226,1.048,0.586,1.416l3.005,2.998
	c0.781,0.781,2.045,0.781,2.825,0l2.998-2.998c0.365-0.368,0.586-0.862,0.586-1.416C55.003,62.564,54.113,61.667,53.008,61.667z"/>
<path fill="#ae7cd8" d="M56.667,57.602c5.211,2.03,11.179-0.3,13.333-5.205v0.006c-5.208-2.031-11.175,0.293-13.333,5.203V57.602z"
	/>
<path fill="#ae7cd8" d="M43.333,57.602c-5.211,2.03-11.179-0.3-13.333-5.205v0.006c5.208-2.031,11.175,0.293,13.333,5.203V57.602z"
	/>
</svg>
